<svg width="225" height="83" viewBox="0 0 225 83" fill="none" xmlns="http://www.w3.org/2000/svg">
<path d="M99.7928 78.0504C124.177 77.5464 151.352 75.6072 178.051 69.8429C186.331 68.2516 194.418 65.7615 202.173 62.4157C205.616 60.8747 208.905 59.0017 211.994 56.8226C214.18 55.2098 216.047 53.196 217.501 50.8855C220.86 45.575 219.919 40.0855 214.786 36.1254C211.672 33.7774 208.299 31.804 204.736 30.2449C194.255 25.7165 183.351 22.2703 172.188 19.9584C162.875 18.0647 153.428 16.9227 143.936 16.5431C142.818 16.5832 141.7 16.4476 140.623 16.1411C139.849 15.8271 138.808 14.8253 138.895 14.2569C139.039 13.7825 139.28 13.3439 139.601 12.9692C139.923 12.5944 140.318 12.2918 140.761 12.0805C141.717 11.808 142.718 11.7316 143.704 11.856C158.948 11.8876 174.096 14.3152 188.606 19.0523C195.665 21.2831 202.605 23.8811 209.4 26.836C212.945 28.4121 216.244 30.5025 219.195 33.0415C222.027 35.1898 223.986 38.3148 224.701 41.8267C225.416 45.3386 224.838 48.9944 223.077 52.104C221.188 55.6954 218.473 58.7721 215.162 61.0732C209.068 65.2578 202.354 68.4307 195.274 70.4725C181.438 74.6927 167.254 77.6358 152.895 79.2658C135.762 81.4725 118.521 82.7024 101.252 82.9496C80.5323 83.2495 59.9398 82.2901 39.6864 77.9468C31.6795 76.3473 23.933 73.6184 16.673 69.8397C12.0273 67.5355 7.87678 64.323 4.46002 60.387C-0.820154 53.9066 -1.35451 47.0196 2.55179 39.8453C4.89544 35.838 7.97615 32.3241 11.6267 29.4943C21.2221 21.56 32.5228 16.2369 44.4958 12.0114C60.2116 6.6946 76.4742 3.21134 92.9684 1.6291C114.161 -0.572037 135.522 -0.542569 156.708 1.71703C175.036 3.55734 193.107 6.61144 210.455 12.5516C212.674 13.3116 214.818 14.2616 216.971 15.1723C218.478 15.8098 219.449 16.7991 218.808 18.4211C218.326 19.6302 216.869 19.9913 214.936 19.1968C204.016 14.7044 192.395 12.4448 180.758 10.2214C167.104 7.72927 153.305 6.13895 139.448 5.46046C114.95 3.98598 90.368 5.87424 66.3692 11.074C53.53 13.7406 41.0904 18.0999 29.3677 24.0409C23.3902 26.98 17.8684 30.7888 12.9774 35.3466C11.1824 37.0517 9.57266 38.9467 8.17579 40.9994C3.99378 47.3242 4.60095 53.5392 10.2529 58.7885C13.2083 61.4668 16.4649 63.7827 19.9551 65.688C27.7228 70.0234 36.4012 72.2924 45.2687 73.9459C62.2879 77.1146 79.5131 78.0881 99.7928 78.0504Z" fill="#AAD7D2"/>
</svg>
