<svg width="34" height="35" viewBox="0 0 34 35" fill="none" xmlns="http://www.w3.org/2000/svg">
<path d="M30.7829 17.4763C31.2195 16.857 31.7367 16.2175 32.1514 15.5174C35.3469 10.1321 32.7727 4.21329 29.5285 2.00194C25.663 -0.633494 21.6548 -0.520742 17.5962 1.48697C14.1891 3.17325 11.5814 5.80867 9.254 8.74705C5.56819 13.402 2.80256 18.6224 0.0503704 23.8495C0.021785 23.9372 0.0048497 24.0283 0 24.1204C1.25435 24.622 2.48576 25.1139 3.69421 25.5964C4.56189 23.895 5.39438 22.2613 6.24755 20.5859C6.32913 20.4274 6.46609 20.3045 6.6323 20.2407C6.79852 20.1768 6.98236 20.1766 7.14876 20.2399C9.17825 21.019 11.1318 21.7804 13.0993 22.5015C13.3058 22.5505 13.4869 22.6741 13.608 22.8486C13.7292 23.0231 13.7818 23.2363 13.7559 23.4473C13.86 26.5102 14.6408 29.3307 16.7449 31.6818C19.4517 34.7043 23.7085 35.8116 27.2818 34.3795C32.6098 32.2455 35.1303 25.6738 32.5947 20.4046C32.0456 19.3955 31.4407 18.4179 30.7829 17.4763V17.4763ZM26.7881 19.1576C27.6298 19.7381 28.335 20.4958 28.8544 21.3777C29.3739 22.2596 29.695 23.2444 29.7955 24.2635C30.0507 26.9023 28.3229 29.8794 25.9804 30.8184C23.2215 31.9258 20.026 30.5845 18.5349 27.673C17.4569 25.5677 17.4267 23.3025 17.5979 21.0171C17.88 17.2222 19.351 13.8143 21.0218 10.4737C21.2569 10.0042 21.4897 9.5335 21.7203 9.06173C21.734 9.00103 21.7396 8.93879 21.7371 8.87662C20.6826 8.3364 19.6062 7.78439 18.4577 7.19538C16.5232 10.881 14.7685 14.5817 14.0531 18.8109C12.159 18.0906 10.3136 17.3888 8.44295 16.6769C8.4556 16.5867 8.47987 16.4984 8.51515 16.4144C10.9517 12.6598 13.6703 9.14084 17.1462 6.28663C18.7094 4.88564 20.6826 4.02851 22.7715 3.84304C25.3137 3.69831 27.4715 4.49433 28.8165 6.79151C29.5293 7.89834 29.8848 9.1983 29.8346 10.5147C29.7844 11.8311 29.3311 13.1001 28.5361 14.1492C27.7334 15.3239 26.5597 16.0744 25.4296 16.8755C25.1425 17.0775 24.8654 17.2929 24.5329 17.5403C25.3272 18.1091 26.0677 18.619 26.7881 19.1575V19.1576Z" fill="#302F2E"/>
<path d="M30.7829 17.4763C31.2195 16.857 31.7367 16.2175 32.1514 15.5174C35.3469 10.1321 32.7727 4.21329 29.5285 2.00194C25.663 -0.633494 21.6548 -0.520742 17.5962 1.48697C14.1891 3.17325 11.5814 5.80867 9.254 8.74705C5.56819 13.402 2.80256 18.6224 0.0503704 23.8495C0.021785 23.9372 0.0048497 24.0283 0 24.1204C1.25435 24.622 2.48576 25.1139 3.69421 25.5964C4.56189 23.895 5.39438 22.2613 6.24755 20.5859C6.32913 20.4274 6.46609 20.3045 6.6323 20.2407C6.79852 20.1768 6.98236 20.1766 7.14876 20.2399C9.17825 21.019 11.1318 21.7804 13.0993 22.5015C13.3058 22.5505 13.4869 22.6741 13.608 22.8486C13.7292 23.0231 13.7818 23.2363 13.7559 23.4473C13.86 26.5102 14.6408 29.3307 16.7449 31.6818C19.4517 34.7043 23.7085 35.8116 27.2818 34.3795C32.6098 32.2455 35.1303 25.6738 32.5947 20.4046C32.0456 19.3955 31.4407 18.4179 30.7829 17.4763V17.4763ZM26.7881 19.1576C27.6298 19.7381 28.335 20.4958 28.8544 21.3777C29.3739 22.2596 29.695 23.2444 29.7955 24.2635C30.0507 26.9023 28.3229 29.8794 25.9804 30.8184C23.2215 31.9258 20.026 30.5845 18.5349 27.673C17.4569 25.5677 17.4267 23.3025 17.5979 21.0171C17.88 17.2222 19.351 13.8143 21.0218 10.4737C21.2569 10.0042 21.4897 9.5335 21.7203 9.06173C21.734 9.00103 21.7396 8.93879 21.7371 8.87662C20.6826 8.3364 19.6062 7.78439 18.4577 7.19538C16.5232 10.881 14.7685 14.5817 14.0531 18.8109C12.159 18.0906 10.3136 17.3888 8.44295 16.6769C8.4556 16.5867 8.47987 16.4984 8.51515 16.4144C10.9517 12.6598 13.6703 9.14084 17.1462 6.28663C18.7094 4.88564 20.6826 4.02851 22.7715 3.84304C25.3137 3.69831 27.4715 4.49433 28.8165 6.79151C29.5293 7.89834 29.8848 9.1983 29.8346 10.5147C29.7844 11.8311 29.3311 13.1001 28.5361 14.1492C27.7334 15.3239 26.5597 16.0744 25.4296 16.8755C25.1425 17.0775 24.8654 17.2929 24.5329 17.5403C25.3272 18.1091 26.0677 18.619 26.7881 19.1575V19.1576Z" fill="#FFD803"/>
</svg>
