<svg width="46" height="37" viewBox="0 0 46 37" fill="none" xmlns="http://www.w3.org/2000/svg">
<path d="M31.7829 18.4763C32.2195 17.857 32.7367 17.2175 33.1514 16.5174C36.3469 11.1321 33.7727 5.21329 30.5285 3.00194C26.663 0.366506 22.6548 0.479258 18.5962 2.48697C15.1891 4.17325 12.5814 6.80867 10.254 9.74705C6.56819 14.402 3.80256 19.6224 1.05037 24.8495C1.02178 24.9372 1.00485 25.0283 1 25.1204C2.25435 25.622 3.48576 26.1139 4.69421 26.5964C5.56189 24.895 6.39438 23.2613 7.24755 21.5859C7.32913 21.4274 7.46609 21.3045 7.6323 21.2407C7.79852 21.1768 7.98236 21.1766 8.14876 21.2399C10.1783 22.019 12.1318 22.7804 14.0993 23.5015C14.3058 23.5505 14.4869 23.6741 14.608 23.8486C14.7292 24.0231 14.7818 24.2363 14.7559 24.4473C14.86 27.5102 15.6408 30.3307 17.7449 32.6818C20.4517 35.7043 24.7085 36.8116 28.2818 35.3795C33.6098 33.2455 36.1303 26.6738 33.5947 21.4046C33.0456 20.3955 32.4407 19.4179 31.7829 18.4763ZM27.7881 20.1576C28.6298 20.7381 29.335 21.4958 29.8544 22.3777C30.3739 23.2596 30.695 24.2444 30.7955 25.2635C31.0507 27.9023 29.3229 30.8794 26.9804 31.8184C24.2215 32.9258 21.026 31.5845 19.5349 28.673C18.4569 26.5677 18.4267 24.3025 18.5979 22.0171C18.88 18.2222 20.351 14.8143 22.0218 11.4737C22.2569 11.0042 22.4897 10.5335 22.7203 10.0617C22.734 10.001 22.7396 9.93879 22.7371 9.87662C21.6826 9.3364 20.6062 8.78439 19.4577 8.19538C17.5232 11.881 15.7685 15.5817 15.0531 19.8109C13.159 19.0906 11.3136 18.3888 9.44295 17.6769C9.4556 17.5867 9.47987 17.4984 9.51515 17.4144C11.9517 13.6598 14.6703 10.1408 18.1462 7.28663C19.7094 5.88564 21.6826 5.02851 23.7715 4.84304C26.3137 4.69831 28.4715 5.49433 29.8165 7.79151C30.5293 8.89834 30.8848 10.1983 30.8346 11.5147C30.7844 12.8311 30.3311 14.1001 29.5361 15.1492C28.7334 16.3239 27.5597 17.0744 26.4296 17.8755C26.1425 18.0775 25.8654 18.2929 25.5329 18.5403C26.3272 19.1091 27.0677 19.619 27.7881 20.1575V20.1576Z" fill="#302F2E"/>
<path d="M26.1411 17.4671C25.9384 17.6097 25.7366 17.7618 25.5256 17.9207C25.4307 17.9922 25.3339 18.0651 25.2344 18.1391C25.1064 18.2344 25.0315 18.3852 25.0329 18.5448C25.0344 18.7045 25.112 18.8538 25.2418 18.9468C25.5072 19.1369 25.7642 19.3187 26.0151 19.4962C26.5238 19.8561 27.0075 20.1983 27.4859 20.5559C27.4919 20.5604 27.498 20.5649 27.5042 20.5691C28.286 21.1084 28.9411 21.8122 29.4236 22.6314C29.9062 23.4507 30.2045 24.3656 30.2979 25.3124C30.4136 26.5107 30.079 27.8107 29.4299 28.927C28.7798 30.0449 27.8401 30.9351 26.7944 31.3543L26.7942 31.3544C24.3087 32.352 21.3706 31.1603 19.9799 28.4452C18.9679 26.4687 18.9266 24.3214 19.0965 22.0545L19.0965 22.0542C19.371 18.3626 20.8029 15.0286 22.4689 11.6976C22.7047 11.2266 22.9382 10.7545 23.1695 10.2813C23.1866 10.2463 23.1996 10.2095 23.2081 10.1715C23.2314 10.0682 23.241 9.96227 23.2367 9.85646C23.2294 9.67621 23.1256 9.51386 22.9651 9.43161C21.9419 8.90743 20.8981 8.37215 19.7876 7.80265L19.6858 7.75047C19.4417 7.62531 19.1424 7.72014 19.0149 7.96301C17.1671 11.4836 15.456 15.0658 14.6686 19.1297C13.1387 18.5479 11.6362 17.9765 10.1213 17.4001C12.4958 13.7751 15.1314 10.4092 18.4635 7.67305C18.4691 7.66848 18.4745 7.66379 18.4799 7.65898C19.9608 6.33173 21.8295 5.51916 23.8078 5.34179C26.2114 5.20683 28.1601 5.95207 29.3851 8.04414C29.3886 8.05025 29.3923 8.05627 29.3962 8.06222C30.0534 9.08282 30.3813 10.2816 30.335 11.4957C30.2887 12.7097 29.8706 13.8799 29.1376 14.8472C29.1327 14.8537 29.1279 14.8604 29.1233 14.8671C28.4602 15.8376 27.5237 16.4953 26.4995 17.2146C26.3811 17.2978 26.2615 17.3818 26.1411 17.4671ZM26.1411 17.4671C26.1414 17.4669 26.1417 17.4667 26.142 17.4665L26.4294 17.8752L26.1405 17.4676C26.1407 17.4675 26.1409 17.4673 26.1411 17.4671ZM34.0339 21.1656C33.5325 20.2442 32.9853 19.3487 32.3945 18.4823C32.4577 18.3959 32.5228 18.3075 32.5892 18.2175C32.9199 17.7691 33.2815 17.2788 33.5814 16.7726C36.9311 11.1273 34.2394 4.92626 30.8101 2.58879C26.7684 -0.166832 22.5631 -0.0332193 18.3745 2.03881L18.3744 2.03885C14.8718 3.77242 12.2093 6.47311 9.86205 9.43661L9.86201 9.43667C6.14288 14.1337 3.35713 19.3952 0.607949 24.6166C0.594774 24.6416 0.583745 24.6677 0.574982 24.6946C0.532818 24.8239 0.507843 24.9583 0.500691 25.0942C0.489437 25.308 0.615569 25.5052 0.814377 25.5847C2.06881 26.0863 3.30029 26.5783 4.50883 27.0607C4.74881 27.1565 5.02225 27.0537 5.13964 26.8235C6.00714 25.1225 6.83947 23.4891 7.69245 21.8141C7.71794 21.7649 7.7604 21.7271 7.81152 21.7074C7.86283 21.6877 7.91953 21.6876 7.97089 21.7072L8.14876 21.2399L7.96957 21.7067C8.38021 21.8643 8.7881 22.0214 9.19391 22.1776C10.7905 22.7923 12.3548 23.3946 13.9273 23.9709C13.9458 23.9777 13.9647 23.9834 13.9838 23.988C14.0702 24.0085 14.1463 24.0603 14.1973 24.1337C14.2483 24.2072 14.2706 24.2972 14.2596 24.3863C14.2565 24.4122 14.2553 24.4382 14.2562 24.4643C14.3629 27.6037 15.1667 30.5507 17.3723 33.0152L17.3724 33.0153C20.2072 36.1807 24.6828 37.3605 28.4677 35.8436C34.0702 33.5998 36.7036 26.7121 34.0453 21.1878C34.0417 21.1803 34.0379 21.1729 34.0339 21.1656Z" fill="#FFD803" stroke="#272343" stroke-linejoin="round"/>
<circle cx="42.9455" cy="31.9455" r="2.44554" fill="#E3F6F5" stroke="#272343"/>
</svg>
