<svg width="1845" height="1080" viewBox="0 0 1845 1080" fill="none" xmlns="http://www.w3.org/2000/svg">
<path d="M271.5 425.5C264.923 448.933 259.397 474.318 254.758 500.779C219.174 703.787 432.738 843.584 627.276 775.51C708.462 747.1 799.184 754.99 873.758 797.853L934.749 832.909C1058.69 904.146 1216.99 849.137 1270.04 716.394C1319.04 593.818 1459.36 535.637 1580.71 587.583L1893.73 721.57C1942.43 742.419 1999 730.063 2034.58 690.806C2080.45 640.19 2162.05 647.719 2197.89 705.874L2202.92 714.038C2233.13 763.078 2220.3 827.136 2173.53 860.753L2094.31 917.682C2029.7 964.114 1944.7 970.968 1873.49 935.487L1777.6 887.713C1668.73 833.467 1537.52 893.127 1506.83 1010.83C1477.54 1123.19 1379.02 1203.76 1263.09 1210.18L1165.52 1215.58C1101.99 1219.09 1039.1 1201.45 986.676 1165.4L881.903 1093.35C795.808 1034.15 680.799 1039.63 600.728 1106.76C520.294 1174.19 404.66 1179.39 318.502 1119.44L256.017 1075.97C208.201 1042.7 169.977 997.442 145.18 944.733L54.8966 752.831C29.7845 699.454 13.1115 642.501 5.47335 584.008C-3.76018 513.298 0.358737 441.482 17.6162 372.291L25.6011 340.277C38.4831 288.629 57.7766 238.795 83.032 191.937L326.937 -260.595C363.026 -327.552 444.369 -355.734 514.146 -325.453C607.51 -284.936 633.381 -162.732 569.683 -83.3532C461.433 51.5449 320.581 250.62 271.5 425.5Z" fill="#AAD7D2"/>
</svg>
