<svg width="114" height="90" viewBox="0 0 114 90" fill="none" xmlns="http://www.w3.org/2000/svg">
<path d="M79.156 44.9391C80.2786 43.3466 81.6085 41.7022 82.6751 39.9019C90.8921 26.0539 84.2727 10.8342 75.9305 5.14785C65.9907 -1.62899 55.6838 -1.33905 45.2474 3.82364C36.4864 8.15979 29.7806 14.9366 23.796 22.4924C14.3182 34.4622 7.20659 47.8861 0.129524 61.3273C0.0560186 61.5528 0.0124707 61.7871 0 62.024C3.22548 63.3136 6.39194 64.5787 9.49941 65.8192C11.7306 61.4442 13.8713 57.2433 16.0651 52.9352C16.2749 52.5275 16.6271 52.2115 17.0545 52.0474C17.4819 51.8833 17.9546 51.8826 18.3825 52.0455C23.6012 54.0487 28.6248 56.0068 33.684 57.861C34.2148 57.987 34.6805 58.3048 34.992 58.7535C35.3036 59.2023 35.439 59.7504 35.3723 60.293C35.64 68.169 37.6479 75.4219 43.0582 81.4674C50.0187 89.2395 60.9646 92.087 70.1531 88.4044C83.8539 82.9171 90.335 66.0183 83.815 52.4689C82.4029 49.8741 80.8475 47.3603 79.156 44.9391ZM68.8837 49.2623C71.0481 50.7552 72.8615 52.7035 74.1971 54.9711C75.5328 57.2388 76.3587 59.7713 76.617 62.3919C77.2733 69.1773 72.8302 76.8326 66.8067 79.2473C59.7124 82.0948 51.4954 78.6458 47.6612 71.1593C44.8891 65.7456 44.8114 59.9208 45.2518 54.0441C45.9772 44.2856 49.7597 35.5224 54.056 26.9324C54.6605 25.725 55.2593 24.5147 55.8522 23.3016C55.8874 23.1455 55.9019 22.9855 55.8954 22.8256C53.1838 21.4364 50.416 20.017 47.4625 18.5024C42.4883 27.9796 37.9761 37.4958 36.1366 48.3708C31.266 46.5186 26.5206 44.714 21.7104 42.8835C21.743 42.6514 21.8054 42.4245 21.8961 42.2084C28.1614 32.5538 35.1521 23.505 44.0902 16.1656C48.1099 12.5631 53.1837 10.359 58.5552 9.88211C65.0925 9.50995 70.641 11.5568 74.0997 17.4639C75.9325 20.31 76.8466 23.6528 76.7176 27.0378C76.5886 30.4228 75.4228 33.6859 73.3786 36.3836C71.3146 39.4042 68.2964 41.3343 65.3904 43.3942C64.6521 43.9135 63.9396 44.4674 63.0847 45.1035C65.1271 46.5662 67.0313 47.8774 68.8837 49.2622V49.2623Z" fill="#AAD7D2"/>
<circle cx="105.594" cy="45" r="7.57426" fill="#AAD7D2"/>
</svg>
